HIERARCHY
ROOT Hips
{
	OFFSET 0.00000 0.00000 0.00000
	CHANNELS 6 Xposition Yposition Zposition Yrotation Zrotation Xrotation 
	JOINT Lumbar
	{
		OFFSET 0 0 0
		CHANNELS 3 Zrotation Xrotation Yrotation
		JOINT Neck
		{
			OFFSET 0.00 0.2701 0.00
			CHANNELS 3 Zrotation Xrotation Yrotation
			End Site
			{
				OFFSET 0.00 0.1379 0.00
			}
		}
		JOINT RightShoulder
		{
			OFFSET 0.0119 0.2289 0.1181
			CHANNELS 3 Zrotation Xrotation Yrotation
			JOINT RightElbow
			{
				OFFSET 0.00 -0.1475 0.00
				CHANNELS 2 Zrotation Yrotation
				JOINT RightWrist
				{
					OFFSET 0.00 -0.1605 0.00
					CHANNELS 2 Zrotation Xrotation
					End Site
					{
						OFFSET 0.0040 -0.1068 0.0006
					}
				}
			}
		}
		JOINT LeftShoulder
		{
			OFFSET 0.0119 0.2289 -0.1181
			CHANNELS 3 Zrotation Xrotation Yrotation
			JOINT LeftElbow
			{
				OFFSET 0.00 -0.1475 0.00
				CHANNELS 2 Zrotation Yrotation
				JOINT LeftWrist
				{
					OFFSET 0.00 -0.1605 0.00
					CHANNELS 2 Zrotation Xrotation
					End Site
					{
						OFFSET 0.0040 -0.1068 -0.0006
					}
				}
			}
		}
	}
	JOINT RightHip
	{
		OFFSET 0.0316 -0.0424 0.0458
		CHANNELS 3 Zrotation Xrotation Yrotation
		JOINT RightKnee
		{
			OFFSET 0.00 -0.2438 0.00
			CHANNELS 1 Zrotation
			JOINT RightAnkle
			{
				OFFSET 0.00 -0.2449 0.00
				CHANNELS 3 Zrotation Xrotation Yrotation
				End Site
				{
					OFFSET 0.1237 -0.0542 0.0051
				}
			}
		}
	}
	JOINT LeftHip
	{
		OFFSET 0.0316 -0.0424 -0.0458
		CHANNELS 3 Zrotation Xrotation Yrotation
		JOINT LeftKnee
		{
			OFFSET 0.00 -0.2438 0.00
			CHANNELS 1 Zrotation
			JOINT LeftAnkle
			{
				OFFSET 0.00 -0.2449 0.00
				CHANNELS 3 Zrotation Xrotation Yrotation
				End Site
				{
					OFFSET 0.1237 -0.0542 -0.0051
				}
			}
		}
	}
}
MOTION
Frames: 14
Frame Time: 0.02
0 0.57926 -0 205.7661 0 -3.59509 9.1258 4.04439 -4.55798 -18.81749 3.72576 -0.39796 15.87453 -13.8516 -3.81342 6.10223 79.59668 -1.67726 -0.21719 18.73376 6.15733 15.78868 5.78819 -76.60239 -4.47906 0.72906 -5.13479 8.77199 8.07571 -3.93972 1.44671 -2.84184 -3.65907 -4.10844 -1.08776 -7.03444 -6.10651 6.80061 4.62184 6.40294
-0.00045 0.57923 0.00018 205.76269 0 -3.58514 9.13885 4.04692 -4.52553 -19.0222 3.73588 -0.3797 15.06341 -13.87154 -6.32915 6.03889 79.37061 -1.79427 0.10676 17.49762 6.24732 20.48698 5.78795 -75.86405 -4.62275 0.6989 -5.17059 8.76708 8.09309 -3.96242 1.49479 -2.81391 -3.67643 -4.16285 -1.09441 -7.01922 -6.09234 6.8273 4.61564 6.3998
-0.0009 0.5792 0.00037 205.75938 0 -3.57528 9.15215 4.04952 -4.49296 -19.22694 3.74557 -0.36122 14.25697 -13.89076 -8.82957 5.97605 79.1458 -1.91038 0.42883 16.26864 6.33653 25.1911 5.78772 -75.1374 -4.76589 0.66969 -5.20625 8.76221 8.11034 -3.98504 1.54267 -2.78616 -3.6937 -4.217 -1.101 -7.00408 -6.0783 6.85391 4.60948 6.39661
-0.00134 0.57918 0.00055 205.75582 0 -3.56576 9.16626 4.05251 -4.45938 -19.43307 3.75402 -0.34134 13.45935 -13.90791 -11.29553 5.9146 78.9238 -2.02412 0.74649 15.0552 6.42296 29.98517 5.78749 -74.45348 -4.90731 0.64477 -5.2417 8.75751 8.12743 -4.00753 1.59021 -2.75883 -3.71048 -4.27071 -1.10739 -6.9886 -6.06463 6.88061 4.60352 6.39328
-0.0018 0.57915 0.00073 205.75286 0 -3.55451 9.17573 4.05354 -4.4309 -19.63099 3.76953 -0.32847 12.61259 -13.93677 -13.94683 5.84581 78.68689 -2.15058 1.08749 13.75811 6.52351 34.32796 5.78723 -73.54704 -5.05675 0.59804 -5.27828 8.75198 8.14559 -4.03066 1.63952 -2.72925 -3.72948 -4.32679 -1.11481 -6.97432 -6.04896 6.90699 4.59662 6.39082
-0.00223 0.57912 0.00091 205.74913 0 -3.54689 9.19524 4.05866 -4.39183 -19.84664 3.76976 -0.30107 11.87224 -13.94033 -16.20155 5.79259 78.48175 -2.24991 1.37881 12.64017 6.59451 39.60369 5.78703 -73.10957 -5.18981 0.59686 -5.31244 8.74819 8.1613 -4.05245 1.68505 -2.70448 -3.74398 -4.37778 -1.12007 -6.95795 -6.03756 6.93393 4.59164 6.38646
-0.00257 0.57911 0.0011 205.73902 0 -3.5497 9.24192 4.07602 -4.32012 -20.11433 3.72893 -0.22881 11.40301 -13.87575 -17.39795 5.78274 78.36163 -2.27495 1.53534 11.99711 6.57935 47.84326 5.78698 -74.0244 -5.27314 0.73148 -5.34049 8.74938 8.17215 -4.07066 1.72081 -2.69242 -3.74436 -4.41585 -1.11913 -6.93131 -6.03799 6.96381 4.59268 6.37691
-0.00288 0.5791 0.00128 205.72891 0 -3.5561 9.29891 4.09736 -4.23826 -20.39964 3.67242 -0.14268 11.04536 -13.78529 -18.18726 5.78855 78.27382 -2.27247 1.64122 11.53854 6.53513 56.96156 5.78699 -75.40288 -5.34056 0.91032 -5.36602 8.75231 8.18031 -4.08749 1.75264 -2.68527 -3.74064 -4.44858 -1.11604 -6.90338 -6.04273 6.99403 4.59554 6.36542
-0.0032 0.57909 0.00147 205.72156 0 -3.56058 9.35155 4.1163 -4.16318 -20.67523 3.62228 -0.06586 10.65029 -13.70537 -19.14195 5.78692 78.173 -2.28227 1.76917 11.00684 6.50722 65.43756 5.78697 -76.5336 -5.41864 1.06267 -5.39235 8.75431 8.18831 -4.10491 1.78586 -2.67625 -3.7397 -4.48307 -1.11408 -6.87895 -6.04549 7.02323 4.5971 6.35478
-0.00354 0.57908 0.00166 205.70256 0 -3.56625 9.40264 4.13774 -4.07901 -20.95805 3.5753 0.02371 10.19727 -13.63038 -20.18451 5.7866 78.06567 -2.29322 1.90198 10.42723 6.46645 74.94212 5.78695 -77.82184 -5.48344 1.24229 -5.42013 8.75683 8.20166 -4.12257 1.82075 -2.66577 -3.73428 -4.52043 -1.11147 -6.8422 -6.04839 7.05609 4.60062 6.34433
-0.00382 0.57907 0.00184 205.70784 0 -3.5703 9.45956 4.15491 -4.01133 -21.22998 3.51804 0.08993 9.89388 -13.53926 -20.94074 5.78735 77.97892 -2.29497 2.01153 9.99474 6.44524 82.50778 5.78694 -78.89059 -5.57063 1.37527 -5.44428 8.75874 8.20386 -4.13931 1.85122 -2.6594 -3.73796 -4.55047 -1.10969 -6.8308 -6.05198 7.08138 4.60051 6.33298
-0.00397 0.57907 0.00198 205.78001 0 -3.56892 9.52887 4.15939 -3.99199 -21.4675 3.43589 0.08906 9.95539 -13.40756 -21.06245 5.78682 77.94704 -2.28041 2.0787 9.89327 6.4881 84.54529 5.78694 -79.25164 -5.73662 1.37165 -5.45933 8.75828 8.17407 -4.15458 1.8707 -2.66334 -3.7652 -4.56226 -1.11091 -6.88969 -6.05665 7.08587 4.5899 6.32001
-0.00406 0.57906 0.00211 205.87664 0 -3.56579 9.60389 4.15942 -3.98962 -21.69329 3.34394 0.06407 10.16763 -13.26093 -20.89887 5.78705 77.93403 -2.25708 2.12235 9.93929 6.5512 84.58807 5.78694 -79.37251 -5.92337 1.31902 -5.47075 8.75729 8.13609 -4.16886 1.88581 -2.67076 -3.80476 -4.56671 -1.11299 -6.97411 -6.06184 7.08269 4.57558 6.30613
-0.00418 0.57905 0.00224 205.96219 0 -3.56351 9.67712 4.16141 -3.97921 -21.92472 3.25677 0.04966 10.32446 -13.12276 -20.82973 5.787 77.908 -2.23623 2.17067 9.93719 6.60293 85.52496 5.78693 -79.59696 -6.0919 1.2869 -5.48364 8.7566 8.0998 -4.18312 1.90276 -2.67703 -3.8371 -4.57415 -1.11454 -7.04686 -6.06662 7.08291 4.56299 6.29247
